# xmcd
#
# Track frame offsets: 
#        150
#        10242
#        22592
#        34970
#        49502
#        63312
#        77602
#        92855
#        107115
#        119695
#        132882
#        145487
#        157372
#        170640
#        184310
#        195937
#        209725
#        222950
#        236307
#        249400
#
# Disc length: 3502 seconds
#
# Revision: 2
# Processed by: cddbd v1.4PL0 Copyright (c) Steve Scherf et al.
# Submitted via: ExactAudioCopy v0.90b3
#
DISCID=1e0dac14
DTITLE=Wilf Carter - Montana Slim - Disc 7
DYEAR=1900
DGENRE=Country
TTITLE0=Rattlin' Cannonball - 1940
TTITLE1=My Old Canadian Home - 1940
TTITLE2=I'll Get Mine Bey And Bey - 1940
TTITLE3=Dad's Little Texas Lad - 1940
TTITLE4=Thinking - 1940
TTITLE5=What A Wonderful Mother Of Mine - 1940
TTITLE6=You Are My Sonshine - 1940
TTITLE7=My Texas Sweetheart - 1940
TTITLE8=Echoing Hills Yodel Back To Me - 1940
TTITLE9=You Were With Me In The Waltz Of My Dreams - 1940
TTITLE10=When That Somebody Else Were You - 1940
TTITLE11=My Missoula Valley Moon - 1940
TTITLE12=Old Chock Wagon Days - 1940
TTITLE13=It's A Cowboy's Night To Howl - 1940
TTITLE14=Back Ridin' Old Trails Again - 1940
TTITLE15=Let's Go Back To The Bible - 1940
TTITLE16=Why Should I Feel Sorry For You Now - 1940
TTITLE17=I Bought A Rock For A Rocky Mountain Gal - 1940
TTITLE18=It's Great To Be Back In The Saddel Again - 1940
TTITLE19=If You Don't Really Care - 1940
EXTD=
EXTT0=
EXTT1=
EXTT2=
EXTT3=
EXTT4=
EXTT5=
EXTT6=
EXTT7=
EXTT8=
EXTT9=
EXTT10=
EXTT11=
EXTT12=
EXTT13=
EXTT14=
EXTT15=
EXTT16=
EXTT17=
EXTT18=
EXTT19=
PLAYORDER=
